<svg height="512" viewBox="0 0 192 192" width="512" xmlns="http://www.w3.org/2000/svg"><path d="m167.548 56.418c7.898-6.001 16.452-16.228 16.452-32.418h-16c0 12.747-9.146 19.631-14.61 22.607a104.658 104.658 0 0 0 -13.53-6.559c6.675-7.241 12.14-17.582 12.14-32.048h-16c0 11.224-4.794 20.163-14.225 26.6a121.487 121.487 0 0 0 -17.775-2.355v-32.245h-16v32.245a121.487 121.487 0 0 0 -17.775 2.355c-9.431-6.437-14.225-15.376-14.225-26.6h-16c0 14.466 5.465 24.807 12.14 32.048a104.512 104.512 0 0 0 -13.529 6.558c-5.438-2.966-14.611-9.856-14.611-22.606h-16c0 16.19 8.554 26.417 16.452 32.418-15.968 13.146-23.058 26.907-23.607 28.004l14.31 7.156c.219-.436 22.465-43.578 80.845-43.578 57.987 0 79.951 41.823 80.845 43.578l14.31-7.156c-.549-1.097-7.639-14.858-23.607-28.004z"/><path d="m96 64c-51.933 0-77.785 42.092-78.86 43.884a8 8 0 0 0 0 8.232c1.075 1.792 26.927 43.884 78.86 43.884s77.785-42.092 78.86-43.884a8 8 0 0 0 0-8.232c-1.075-1.792-26.927-43.884-78.86-43.884zm0 88a40 40 0 1 1 40-40 40.045 40.045 0 0 1 -40 40z"/><circle cx="104" cy="95" r="8"/></svg>